<svg width="9" height="11" viewBox="0 0 9 11" fill="none" xmlns="http://www.w3.org/2000/svg">
<path opacity="0.5" d="M8.65969 7.38434H7.77974C6.62428 7.38434 5.98753 8.08564 5.98753 9.35891C5.98753 9.84311 5.6365 10.2369 5.20452 10.2369C4.77254 10.2369 4.42185 9.84273 4.42185 9.35853V7.69989C6.22291 7.45531 7.62429 5.73256 7.62429 3.64695V2.38475H7.82328C7.91349 2.38475 8.00001 2.34455 8.0638 2.27299C8.12758 2.20144 8.16342 2.10439 8.16342 2.00319C8.16342 1.902 8.12758 1.80494 8.0638 1.73339C8.00001 1.66183 7.91349 1.62163 7.82328 1.62163H6.53108V0.38156C6.53108 0.280364 6.49524 0.183313 6.43145 0.111756C6.36766 0.0402 6.28115 0 6.19093 0C6.10072 0 6.01421 0.0402 5.95042 0.111756C5.88663 0.183313 5.85079 0.280364 5.85079 0.38156V1.62163H2.1116V0.38156C2.1116 0.280364 2.07577 0.183313 2.01198 0.111756C1.94819 0.0402 1.86167 0 1.77146 0C1.68125 0 1.59473 0.0402 1.53095 0.111756C1.46716 0.183313 1.43132 0.280364 1.43132 0.38156V1.62163H0.340143C0.249931 1.62163 0.163415 1.66183 0.0996255 1.73339C0.0358364 1.80494 0 1.902 0 2.00319C0 2.10439 0.0358364 2.20144 0.0996255 2.27299C0.163415 2.34455 0.249931 2.38475 0.340143 2.38475V3.64695C0.340143 5.80849 1.84561 7.57893 3.74157 7.71896V9.35891C3.74157 10.2636 4.39804 11 5.20486 11C6.01168 11 6.66815 10.2636 6.66815 9.35891C6.66815 8.50956 7.00081 8.14746 7.78008 8.14746H8.66003C8.75024 8.1474 8.83674 8.10716 8.9005 8.03556C8.96425 7.96397 9.00004 7.8669 9 7.7657C8.99996 7.66451 8.96408 7.56748 8.90026 7.49596C8.83643 7.42444 8.7499 7.38428 8.65969 7.38434ZM1.02043 3.64695V2.38475H6.94401V3.64695C6.94401 5.47882 5.61541 6.96958 3.98205 6.96958C2.34868 6.96958 1.02043 5.47882 1.02043 3.64695Z" fill="black"/>
</svg>
