<svg width="13" height="13" viewBox="0 0 13 13" fill="none" xmlns="http://www.w3.org/2000/svg">
<path d="M8.69298 1.45325C6.64381 -0.540402 3.28269 -0.483273 1.30875 1.62757C-0.475621 3.53479 -0.42898 6.54212 1.40955 8.39954C3.24508 10.254 6.18493 10.4093 8.21153 8.87708L11.3981 11.9767C11.6479 12.2184 12.0511 12.2184 12.2993 11.9767C12.5491 11.735 12.5491 11.3424 12.2993 11.0992L9.11274 7.99964C10.6699 6.05432 10.533 3.24182 8.69298 1.45325ZM8.21303 7.10901C6.66939 9.20374 3.50386 9.20374 1.96021 7.10901C1.0259 5.84046 1.0259 4.08264 1.96021 2.81409C3.50386 0.719363 6.66939 0.719363 8.21303 2.81409C9.14735 4.08264 9.14735 5.83899 8.21303 7.10901Z" fill="#333333"/>
</svg>
