<svg width="18" height="18" viewBox="0 0 18 18" fill="none" xmlns="http://www.w3.org/2000/svg">
<path fill-rule="evenodd" clip-rule="evenodd" d="M14.36 0.000615506C15.3179 0.0269293 16.0926 0.316195 16.6569 0.880498C17.2342 1.44484 17.5226 2.2063 17.5358 3.17737C17.5489 4.0304 17.3522 4.98843 16.9323 6.0514C16.591 6.93077 16.118 7.83632 15.5143 8.76819C16.118 9.70001 16.591 10.6057 16.9323 11.485C17.3523 12.5481 17.5489 13.5069 17.5358 14.36C17.5095 15.3179 17.2212 16.0926 16.6569 16.6569C16.0926 17.2343 15.3311 17.5226 14.36 17.5358C13.5069 17.5489 12.5481 17.3523 11.485 16.9323C10.6057 16.591 9.70001 16.118 8.76819 15.5143C7.83632 16.118 6.93077 16.591 6.0514 16.9323C4.98843 17.3522 4.0304 17.5489 3.17737 17.5358C2.21943 17.5095 1.44485 17.221 0.880498 16.6569C0.303072 16.0926 0.0138093 15.3311 0.000615506 14.36C-0.0125095 13.5069 0.184131 12.5481 0.604131 11.485C0.94538 10.6056 1.41836 9.70005 2.0221 8.76819C1.41839 7.83636 0.945366 6.93073 0.604131 6.0514C0.184241 4.98848 -0.012464 4.03037 0.000615506 3.17737C0.0268655 2.21925 0.316125 1.458 0.880498 0.880498C1.44487 0.302998 2.20612 0.0137405 3.17737 0.000615506C4.03037 -0.0124641 4.98848 0.184241 6.0514 0.604131C6.93073 0.945366 7.83636 1.41839 8.76819 2.0221C9.70005 1.41836 10.6056 0.945379 11.485 0.604131C12.5481 0.184131 13.5069 -0.0125095 14.36 0.000615506ZM2.86194 9.93616C2.44194 10.6318 2.1137 11.3014 1.8512 11.9576C1.49683 12.8633 1.33948 13.6511 1.33948 14.3336C1.35264 14.9501 1.51013 15.4093 1.82483 15.7242C2.13983 16.0392 2.59959 16.2106 3.21644 16.2106C3.89894 16.2237 4.68679 16.0523 5.59241 15.6979L5.60511 15.7116C6.26136 15.4622 6.93097 15.1208 7.62659 14.7008C6.74735 14.0447 5.89433 13.2966 5.08069 12.483C4.25382 11.6562 3.51819 10.8155 2.86194 9.93616ZM14.7135 9.92347C14.0573 10.8027 13.3225 11.6426 12.4957 12.4694C11.6689 13.2962 10.8292 14.0319 9.94983 14.6881C10.6453 15.108 11.3152 15.4354 11.9713 15.6979C12.8768 16.0522 13.6639 16.2106 14.3463 16.2106C14.9632 16.1975 15.4229 16.0392 15.7379 15.7242L15.7506 15.7116C16.0656 15.3966 16.2369 14.9368 16.2369 14.32C16.25 13.6376 16.0785 12.8504 15.7242 11.945C15.4749 11.2887 15.1335 10.6191 14.7135 9.92347ZM8.78187 3.60999C7.82374 4.30562 6.89116 5.09347 5.99866 5.98597C5.09321 6.87832 4.30607 7.81023 3.62366 8.76819C4.31918 9.72617 5.10633 10.658 5.99866 11.5504C6.89116 12.456 7.82374 13.2439 8.78187 13.9264C9.73989 13.2308 10.6717 12.4428 11.5641 11.5504C12.4696 10.658 13.2576 9.72622 13.9401 8.76819C13.2445 7.81011 12.4565 6.87844 11.5641 5.98597C10.6716 5.08038 9.73994 4.29247 8.78187 3.60999ZM8.78187 6.93128C9.79225 6.93148 10.6187 7.75779 10.6188 8.76819C10.6188 9.7787 9.79233 10.6059 8.78187 10.6061C7.77124 10.6061 6.94397 9.77882 6.94397 8.76819C6.94409 7.75767 7.77131 6.93128 8.78187 6.93128ZM3.20374 1.32679C2.58687 1.33991 2.12714 1.49714 1.81214 1.81214C1.49714 2.12714 1.32679 2.58687 1.32679 3.20374C1.31373 3.88611 1.48424 4.67335 1.83851 5.57874L1.82483 5.59241C2.08727 6.24848 2.41573 6.9175 2.83558 7.61292C3.4918 6.7336 4.2275 5.89385 5.05433 5.06702C5.88109 4.24028 6.72097 3.50542 7.60022 2.84925C6.9046 2.42925 6.23499 2.10101 5.57874 1.83851C4.67335 1.48424 3.88611 1.32685 3.20374 1.32679ZM14.3463 1.31312C13.664 1.30003 12.8766 1.47063 11.9713 1.82483L11.9576 1.81214C11.3014 2.07463 10.6318 2.4029 9.93616 2.82288C10.8155 3.47913 11.6693 4.2269 12.483 5.04065C13.3099 5.86752 14.0446 6.70817 14.7008 7.58753C15.1208 6.89195 15.4491 6.22225 15.7116 5.56605C16.0659 4.66042 16.2233 3.87257 16.2233 3.19007C16.2101 2.57349 16.0527 2.11441 15.7379 1.79944C15.4229 1.48444 14.9632 1.31312 14.3463 1.31312Z" fill="#3E2676"/>
</svg>
