<svg width="14" height="12" viewBox="0 0 14 12" fill="none" xmlns="http://www.w3.org/2000/svg">
<path d="M0.00799466 5.85034C0.0333951 5.66942 0.124092 5.50403 0.262994 5.38534L5.46799 0.180342C5.61147 0.0574727 5.79603 -0.00673153 5.98478 0.000559339C6.17354 0.0078502 6.3526 0.0860991 6.48617 0.21967C6.61974 0.353241 6.69799 0.532296 6.70528 0.721053C6.71257 0.90981 6.64836 1.09437 6.52549 1.23784L2.55799 5.20534H12.7505C12.9494 5.20534 13.1402 5.28436 13.2808 5.42501C13.4215 5.56566 13.5005 5.75643 13.5005 5.95534C13.5005 6.15425 13.4215 6.34502 13.2808 6.48567C13.1402 6.62632 12.9494 6.70534 12.7505 6.70534H2.55799L6.52549 10.6728C6.59542 10.7423 6.65099 10.8248 6.68902 10.9157C6.72706 11.0066 6.74681 11.1041 6.74716 11.2027C6.74751 11.3012 6.72844 11.3989 6.69105 11.4901C6.65366 11.5812 6.59868 11.6642 6.52924 11.7341C6.45981 11.804 6.37728 11.8596 6.28637 11.8976C6.19545 11.9357 6.09794 11.9554 5.9994 11.9558C5.90085 11.9561 5.8032 11.937 5.71202 11.8997C5.62084 11.8623 5.53792 11.8073 5.46799 11.7378L0.217994 6.48784C0.135833 6.40523 0.0740708 6.30459 0.0376163 6.19392C0.00116168 6.08326 -0.00898074 5.96561 0.00799466 5.85034Z" fill="black"/>
</svg>
