<svg width="15" height="15" viewBox="0 0 15 15" fill="none" xmlns="http://www.w3.org/2000/svg">
<path d="M7.33301 0C11.3997 0 14.667 3.26634 14.667 7.33301C14.667 11.3997 11.3997 14.666 7.33301 14.666C3.26648 14.6658 2.34077e-07 11.3996 0 7.33301C0 3.26644 3.26648 0.000171369 7.33301 0ZM7.33301 1.4668C4.13315 1.46697 1.4668 4.13311 1.4668 7.33301C1.4668 10.5329 4.13315 13.199 7.33301 13.1992C10.533 13.1992 13.2002 10.533 13.2002 7.33301C13.2002 4.13301 10.533 1.4668 7.33301 1.4668ZM7.33301 2.7998C7.73301 2.7998 8.06641 3.1332 8.06641 3.5332V6.59961H10.5332C10.9332 6.59961 11.2666 6.93301 11.2666 7.33301C11.2666 7.73301 10.9999 8.06641 10.5332 8.06641H7.33301C6.93314 8.06624 6.59961 7.73291 6.59961 7.33301V3.5332C6.59961 3.1333 6.93314 2.79997 7.33301 2.7998Z" fill="black"/>
</svg>
