<svg width="19" height="16" viewBox="0 0 19 16" fill="none" xmlns="http://www.w3.org/2000/svg">
<path d="M15.1045 0C17.2559 0 19 1.74407 19 3.89546V11.914C19 14.0653 17.2559 15.8094 15.1045 15.8094H3.89546C1.74405 15.8094 0 14.0653 0 11.914V3.89546C0 1.74407 1.74405 0 3.89546 0H15.1045ZM3.89546 1.55819C2.60463 1.55819 1.55819 2.60463 1.55819 3.89546V11.914C1.55819 13.2048 2.60463 14.2512 3.89546 14.2512H7.15915V1.55819H3.89546ZM8.71734 14.2512H15.1045C16.3954 14.2512 17.4418 13.2048 17.4418 11.914V3.89546C17.4418 2.60463 16.3954 1.55819 15.1045 1.55819H8.71734V14.2512ZM5.29216 6.53138C5.72244 6.53138 6.07125 6.88017 6.07125 7.31047C6.07125 7.74075 5.72244 8.08956 5.29216 8.08956H3.51395C3.08367 8.08954 2.73486 7.74075 2.73486 7.31047C2.73486 6.88019 3.08367 6.53138 3.51395 6.53138H5.29216ZM5.29216 3.54015C5.72244 3.54015 6.07125 3.88896 6.07125 4.31924C6.07125 4.74952 5.72244 5.09833 5.29216 5.09833H3.51395C3.08367 5.09833 2.73486 4.74952 2.73486 4.31924C2.73486 3.88896 3.08367 3.54015 3.51395 3.54015H5.29216Z" fill="#333333"/>
</svg>
