<svg width="14" height="14" viewBox="0 0 14 14" fill="none" xmlns="http://www.w3.org/2000/svg">
<path d="M10.085 4.36685C9.97108 4.28113 9.82968 4.23884 9.68674 4.24773C9.61407 4.23966 9.5405 4.24795 9.47153 4.27195C9.40257 4.29596 9.34 4.33507 9.28851 4.38636C9.23702 4.43765 9.19794 4.49978 9.17421 4.5681C9.15048 4.63642 9.14271 4.70916 9.15148 4.78087V8.84075C9.1418 8.98012 9.18566 9.11797 9.27431 9.22681C9.32769 9.28004 9.39239 9.32086 9.46373 9.3463C9.53507 9.37174 9.61125 9.38116 9.68674 9.37389C9.76049 9.38429 9.83568 9.37775 9.90646 9.35479C9.97724 9.33182 10.0417 9.29305 10.0949 9.24147C10.148 9.1899 10.1884 9.12692 10.2129 9.05742C10.2374 8.98792 10.2454 8.91378 10.2361 8.84075V4.77129C10.2429 4.69703 10.2328 4.62222 10.2067 4.55227C10.1805 4.48232 10.139 4.41899 10.085 4.36685ZM13.9502 5.61696V5.58976L13.945 5.58314C13.7737 3.98681 12.9863 2.51707 11.7464 1.47936C10.5065 0.441644 8.90945 -0.0842378 7.2872 0.0110026C5.66494 0.106243 4.14223 0.815281 3.0355 1.99076C1.92877 3.16625 1.32314 4.71777 1.34447 6.3229V6.36482C0.914928 6.80603 0 7.8267 0 8.57088C0.00882244 8.73891 0.0512815 8.90354 0.124922 9.05526C0.198562 9.20697 0.301922 9.34276 0.429024 9.45477C0.556127 9.56679 0.70445 9.6528 0.865415 9.70783C1.02638 9.76286 1.19679 9.78583 1.3668 9.77539L1.8976 9.89377L2.01 12.8028C2.01196 13.1204 2.14079 13.4243 2.36846 13.6485C2.59613 13.8727 2.90422 13.999 3.2257 14H5.51188C5.65249 13.9949 5.78564 13.9362 5.8833 13.8362C5.98097 13.7361 6.03554 13.6025 6.03554 13.4636C6.03554 13.3246 5.98097 13.191 5.8833 13.091C5.78564 12.9909 5.65249 12.9322 5.51188 12.9271H3.22568C3.19001 12.9263 3.15609 12.9117 3.13128 12.8864C3.10647 12.861 3.09277 12.8271 3.09317 12.7918L2.95024 9.02753L1.55292 8.71868L1.50973 8.70545H1.43529C1.34292 8.70163 1.25173 8.68351 1.16505 8.65177C1.0802 8.61794 1.0802 8.6047 1.0802 8.57823C1.35155 7.96742 1.75506 7.42275 2.26238 6.98251C2.32945 6.91639 2.37792 6.83414 2.40298 6.74387C2.42805 6.6536 2.42885 6.55843 2.40531 6.46776C2.41693 6.42333 2.42268 6.3776 2.42243 6.33172C2.41035 5.14611 2.81117 3.99242 3.55772 3.06398C4.30427 2.13553 5.3512 1.48876 6.52305 1.23203C7.69491 0.97531 8.92049 1.12424 9.99441 1.65386C11.0683 2.18348 11.9254 3.06161 12.4218 4.14109C12.6718 4.73824 12.828 5.36959 12.8849 6.01332C12.9538 6.92453 12.8195 7.83959 12.4913 8.69393C12.1632 9.54827 11.6493 10.3211 10.9858 10.9578L10.9679 10.977L10.962 11.0027C10.9391 11.1005 10.9391 11.2022 10.962 11.3001C10.9848 11.3979 11.0299 11.4894 11.0937 11.5675C11.1461 11.6145 11.2074 11.6508 11.2741 11.6742C11.3409 11.6976 11.4117 11.7075 11.4823 11.7035C11.5874 11.7018 11.6919 11.6875 11.7935 11.6608L11.8136 11.6557L11.83 11.6425C12.3188 11.2023 12.7295 10.6843 13.0449 10.11C13.8149 8.74267 14.1315 7.17129 13.9502 5.61696ZM7.34992 4.59188C7.31861 4.49278 7.25501 4.40668 7.16902 4.347C7.05973 4.27845 6.93295 4.24205 6.8035 4.24205C6.67404 4.24205 6.54727 4.27845 6.43798 4.347C6.35305 4.4055 6.29 4.49001 6.25856 4.58746L4.83445 8.7231C4.79228 8.80212 4.77513 8.89184 4.78522 8.98061C4.79531 9.06938 4.83217 9.15311 4.89103 9.22093C4.94548 9.27067 5.00937 9.30928 5.07901 9.33452C5.14864 9.35976 5.22264 9.37114 5.29675 9.368C5.43784 9.37725 5.57717 9.33278 5.6861 9.24372C5.77478 9.16011 5.84235 9.05709 5.88337 8.94297L6.16403 8.21643H7.44001L7.74673 8.98342C7.78613 9.08506 7.84763 9.17694 7.92688 9.25255C8.02606 9.33769 8.15536 9.38053 8.28645 9.37167H8.31102C8.46033 9.37574 8.60553 9.3231 8.71673 9.22461C8.77423 9.15988 8.81151 9.08007 8.82407 8.99485C8.83662 8.90963 8.82391 8.82265 8.78746 8.74441L7.34992 4.59188ZM6.14169 7.28327L6.78266 6.00302L7.4199 7.28327H6.14169Z" fill="black"/>
</svg>
