<svg width="18" height="18" viewBox="0 0 18 18" fill="none" xmlns="http://www.w3.org/2000/svg">
<path d="M15.2176 12.3236V14.1065C15.2169 14.6086 15.0218 15.0899 14.6752 15.4448C14.3286 15.7998 13.8587 15.9994 13.3686 16H4.84836C4.35831 15.9994 3.88849 15.7998 3.54197 15.4448C3.19545 15.0898 3.00054 14.6085 3 14.1065V3.8949C3.00036 3.3927 3.19517 2.91115 3.54169 2.55591C3.8882 2.20066 4.35813 2.00074 4.84836 2H13.3693C13.8595 2.00074 14.3295 2.20064 14.6762 2.55586C15.0228 2.91109 15.2177 3.39263 15.2183 3.8949V5.178C15.2183 5.31724 15.1643 5.45077 15.0682 5.54923C14.9721 5.64769 14.8417 5.703 14.7058 5.703C14.5699 5.703 14.4395 5.64769 14.3434 5.54923C14.2473 5.45077 14.1933 5.31724 14.1933 5.178V3.8949C14.1933 3.4287 13.8237 3.05 13.3693 3.05H4.84836C4.39396 3.05 4.02497 3.4294 4.02497 3.8949V14.1065C4.02497 14.5713 4.39464 14.95 4.84836 14.95H13.3693C13.8237 14.95 14.1933 14.5713 14.1933 14.1065V12.3236C14.1982 12.1878 14.2542 12.0592 14.3498 11.9648C14.4453 11.8705 14.5728 11.8178 14.7055 11.8178C14.8381 11.8178 14.9657 11.8705 15.0612 11.9648C15.1567 12.0592 15.2128 12.1878 15.2176 12.3236ZM16 9C16.0001 8.93106 15.9868 8.86279 15.961 8.79912C15.9352 8.73545 15.8974 8.67764 15.8497 8.629L13.2702 5.9872C13.2226 5.93843 13.1661 5.89975 13.1039 5.87336C13.0417 5.84697 12.975 5.83338 12.9077 5.83338C12.8404 5.83338 12.7737 5.84697 12.7115 5.87336C12.6493 5.89975 12.5928 5.93843 12.5452 5.9872C12.4976 6.03597 12.4598 6.09386 12.434 6.15758C12.4083 6.22129 12.395 6.28958 12.395 6.35855C12.395 6.42752 12.4083 6.49581 12.434 6.55952C12.4598 6.62324 12.4976 6.68113 12.5452 6.7299L14.25 8.4757H9.05482C8.9189 8.4757 8.78855 8.53101 8.69244 8.62947C8.59633 8.72793 8.54234 8.86146 8.54234 9.0007C8.54234 9.13994 8.59633 9.27347 8.69244 9.37193C8.78855 9.47039 8.9189 9.5257 9.05482 9.5257H14.2507L12.5459 11.2722C12.4525 11.3712 12.4007 11.5038 12.4018 11.6414C12.403 11.7791 12.4568 11.9108 12.5518 12.0082C12.6467 12.1055 12.7752 12.1608 12.9096 12.1621C13.044 12.1633 13.1735 12.1105 13.2702 12.0149L15.8497 9.3724C15.9458 9.27348 15.9999 9.1396 16 9Z" fill="#231815"/>
</svg>
