<svg width="16" height="18" viewBox="0 0 16 18" fill="none" xmlns="http://www.w3.org/2000/svg">
<path d="M9.77344 0C10.1563 -0.000298584 10.525 0.143941 10.8066 0.40332L14.6338 3.92871C14.7891 4.07156 14.914 4.24439 14.999 4.4375C15.084 4.63065 15.1275 4.83976 15.1279 5.05078V14.4385C15.1271 15.136 14.8497 15.8046 14.3564 16.2979C13.8632 16.7911 13.1946 17.0685 12.4971 17.0693H2.63379C1.93586 17.0691 1.26619 16.7921 0.772461 16.2988C0.278791 15.8055 0.000870601 15.1364 0 14.4385V2.62695C0.00183479 1.92974 0.279783 1.26091 0.773438 0.768555C1.2671 0.276194 1.93657 -2.41421e-06 2.63379 0H9.77344ZM2.63379 0.990234C2.19905 0.989969 1.78169 1.16199 1.47363 1.46875C1.16558 1.77551 0.991807 2.19222 0.990234 2.62695V14.4385C0.990843 14.8737 1.16382 15.291 1.47168 15.5986C1.77982 15.9064 2.19828 16.0791 2.63379 16.0791H12.4951C12.9302 16.0785 13.3476 15.9063 13.6553 15.5986C13.9629 15.291 14.1351 14.8735 14.1357 14.4385V5.64551H10.1914C9.8673 5.64472 9.55614 5.5155 9.32715 5.28613C9.09837 5.0568 8.96999 4.74582 8.96973 4.42188V0.990234H2.63379ZM10.8945 11.3115C11.0258 11.3115 11.1523 11.3642 11.2451 11.457C11.3378 11.5498 11.3896 11.6755 11.3896 11.8066C11.3896 11.9378 11.3378 12.0634 11.2451 12.1562C11.1523 12.2491 11.0258 12.3018 10.8945 12.3018H3.55078C3.41964 12.3017 3.29391 12.249 3.20117 12.1562C3.10846 12.0634 3.05664 11.9378 3.05664 11.8066C3.05664 11.6754 3.10846 11.5498 3.20117 11.457C3.29391 11.3643 3.41964 11.3116 3.55078 11.3115H10.8945ZM8.38379 7.80664C8.51491 7.80676 8.64067 7.85942 8.7334 7.95215C8.82611 8.04491 8.87786 8.17061 8.87793 8.30176C8.87793 8.43304 8.82623 8.55951 8.7334 8.65234C8.64068 8.74499 8.51485 8.79676 8.38379 8.79688H3.55078C3.41971 8.79677 3.2939 8.74499 3.20117 8.65234C3.10834 8.55951 3.05664 8.43304 3.05664 8.30176C3.05671 8.1706 3.10844 8.04491 3.20117 7.95215C3.29391 7.85941 3.41964 7.80674 3.55078 7.80664H8.38379ZM9.95898 4.42188C9.95898 4.4835 9.98396 4.54315 10.0273 4.58691C10.0707 4.63058 10.1299 4.65573 10.1914 4.65625H13.9619L10.1377 1.13184C10.0861 1.08432 10.025 1.04714 9.95898 1.02344V4.42188Z" fill="black"/>
</svg>
