<svg width="18" height="17" viewBox="0 0 18 17" fill="none" xmlns="http://www.w3.org/2000/svg">
<path d="M0.711244 17C0.619851 17.0001 0.529294 16.9834 0.444527 16.9509C0.313136 16.9004 0.200621 16.8136 0.121417 16.7018C0.0422132 16.59 -6.72667e-05 16.4582 8.03306e-08 16.3233V15.6078V14.016C0.0622339 11.3719 1.05442 9.13389 2.95522 7.3712C3.88412 6.51555 4.95843 5.81549 6.1327 5.30064C6.74073 5.03299 7.37044 4.81236 8.01572 4.6409C8.17397 4.60538 9.0239 4.43621 9.05947 4.43621L9.37775 4.377V0.668937C9.37936 0.534707 9.4229 0.403966 9.50283 0.293344C9.58276 0.182721 9.69547 0.0972164 9.82662 0.0477057C9.95777 -0.00180503 10.1014 -0.0130843 10.2393 0.0153026C10.3773 0.0436894 10.5032 0.11046 10.6011 0.20712L17.8078 7.42872C17.9313 7.55412 18 7.71953 18 7.89138C18 8.06323 17.9313 8.22864 17.8078 8.35404L10.6118 15.7431C10.5146 15.8433 10.388 15.9132 10.2484 15.9437C10.1088 15.9743 9.9628 15.964 9.82945 15.9143C9.6961 15.8646 9.58164 15.7777 9.50104 15.6651C9.42044 15.5524 9.37747 15.4193 9.37775 15.283V12.238C5.35566 12.7912 1.26601 16.753 1.22156 16.7953C1.15521 16.8602 1.07586 16.9117 0.988204 16.9469C0.900549 16.982 0.806371 17.0001 0.711244 17ZM10.1192 5.62036C9.85962 5.65757 8.55982 5.90625 8.39445 5.94684C7.82487 6.0991 7.26894 6.29425 6.73192 6.53046C5.70331 6.97957 4.76235 7.59162 3.94918 8.34051C2.32399 9.84945 1.47583 11.7644 1.42604 14.0447V14.7806C3.20415 13.3291 6.64301 10.9186 10.0783 10.8238C10.1734 10.8213 10.268 10.837 10.3565 10.8699C10.4451 10.9028 10.5258 10.9522 10.5939 11.0153C10.6621 11.0784 10.7162 11.1538 10.7532 11.2372C10.7901 11.3205 10.8092 11.41 10.8091 11.5005V13.5592L16.3213 7.89561L10.8091 2.36396V4.9437C10.8092 5.1197 10.7372 5.2888 10.6084 5.41513C10.4796 5.54146 10.3041 5.61508 10.1192 5.62036Z" fill="#999999"/>
</svg>
