<svg width="13" height="13" viewBox="0 0 13 13" fill="none" xmlns="http://www.w3.org/2000/svg">
<path d="M10.3506 0C11.0525 0.000197353 11.726 0.27842 12.2227 0.774414C12.7193 1.27049 12.999 1.94355 13 2.64551V8.49512C12.999 9.19656 12.7196 9.86924 12.2236 10.3652C11.7277 10.8611 11.0549 11.1396 10.3535 11.1406H8.6416C8.61632 11.1406 8.59234 11.1513 8.57422 11.1689L7.17969 12.5361C6.99403 12.7186 6.74372 12.8207 6.4834 12.8203H6.4707C6.34013 12.8192 6.21093 12.7924 6.09082 12.7412C5.97072 12.6899 5.86168 12.615 5.77051 12.5215L4.44434 11.1699C4.43544 11.1608 4.42482 11.1534 4.41309 11.1484C4.40136 11.1435 4.38871 11.1407 4.37598 11.1406H2.64551C1.94405 11.1398 1.2714 10.8603 0.775391 10.3643C0.279474 9.86824 0.00079144 9.19555 0 8.49414V2.64551C0.000796878 1.94404 0.279389 1.27142 0.775391 0.775391C1.2714 0.279382 1.94405 0.000824936 2.64551 0H10.3506ZM2.64551 0.896484C2.18187 0.896914 1.73702 1.08134 1.40918 1.40918C1.08135 1.73704 0.896886 2.18186 0.896484 2.64551V8.49316C0.896947 8.95675 1.08137 9.40168 1.40918 9.72949C1.73701 10.0573 2.1819 10.2408 2.64551 10.2412H4.37598C4.50805 10.2417 4.63904 10.269 4.76074 10.3203C4.8824 10.3716 4.99242 10.4468 5.08496 10.541L6.41113 11.8936C6.41994 11.9027 6.43069 11.9101 6.44238 11.915C6.45412 11.92 6.46676 11.9229 6.47949 11.9229C6.4921 11.9229 6.50493 11.9198 6.5166 11.915C6.52816 11.9103 6.53897 11.9033 6.54785 11.8945L7.94238 10.5273C8.12793 10.3448 8.37835 10.2426 8.63867 10.2432H10.3506C10.8142 10.2426 11.2591 10.0583 11.5869 9.73047C11.9147 9.40264 12.099 8.95776 12.0996 8.49414V2.64551C12.099 2.1819 11.9147 1.737 11.5869 1.40918C11.2591 1.08147 10.8141 0.897078 10.3506 0.896484H2.64551ZM8.2832 6.69531C8.40198 6.6954 8.51558 6.7432 8.59961 6.82715C8.68374 6.91128 8.73145 7.02556 8.73145 7.14453C8.73136 7.26338 8.68365 7.37689 8.59961 7.46094C8.51556 7.54498 8.40205 7.59268 8.2832 7.59277H3.54785C3.42892 7.59274 3.31457 7.54504 3.23047 7.46094C3.14666 7.37692 3.09969 7.26321 3.09961 7.14453C3.09961 7.02566 3.14648 6.91125 3.23047 6.82715C3.31457 6.74305 3.42892 6.69534 3.54785 6.69531H8.2832ZM9.44824 3.67969C9.56711 3.67969 9.68152 3.72656 9.76562 3.81055C9.84969 3.89461 9.89739 4.00905 9.89746 4.12793C9.89746 4.24689 9.84974 4.36119 9.76562 4.44531C9.6815 4.52944 9.56722 4.57715 9.44824 4.57715H3.54785C3.42892 4.57712 3.31457 4.52941 3.23047 4.44531C3.14646 4.3612 3.09961 4.24682 3.09961 4.12793C3.09968 4.00905 3.1464 3.89461 3.23047 3.81055C3.31456 3.72649 3.42895 3.67972 3.54785 3.67969H9.44824Z" fill="black"/>
</svg>
