<svg width="14" height="14" viewBox="0 0 14 14" fill="none" xmlns="http://www.w3.org/2000/svg">
<g clip-path="url(#clip0_314_1217)">
<path d="M12.3448 10.1453V11.7662C12.3441 12.2226 12.1625 12.6601 11.8397 12.9828C11.5169 13.3055 11.0793 13.487 10.6228 13.4875H2.688C2.23162 13.487 1.79408 13.3055 1.47137 12.9828C1.14866 12.6601 0.967142 12.2225 0.966637 11.7662V2.48289C0.966973 2.02634 1.1484 1.58857 1.47111 1.26562C1.79382 0.942676 2.23145 0.760928 2.688 0.760254H10.6235C11.0801 0.760928 11.5178 0.942656 11.8406 1.26559C12.1634 1.58851 12.345 2.02628 12.3455 2.48289V3.64934C12.3455 3.77593 12.2952 3.89732 12.2057 3.98683C12.1162 4.07633 11.9948 4.12662 11.8682 4.12662C11.7416 4.12662 11.6202 4.07633 11.5307 3.98683C11.4412 3.89732 11.3909 3.77593 11.3909 3.64934V2.48289C11.3909 2.05907 11.0466 1.7148 10.6235 1.7148H2.688C2.26482 1.7148 1.92118 2.05971 1.92118 2.48289V11.7662C1.92118 12.1887 2.26545 12.533 2.688 12.533H10.6235C11.0466 12.533 11.3909 12.1887 11.3909 11.7662V10.1453C11.3954 10.0219 11.4476 9.90494 11.5366 9.81918C11.6256 9.73342 11.7443 9.6855 11.8679 9.6855C11.9914 9.6855 12.1102 9.73342 12.1991 9.81918C12.2881 9.90494 12.3403 10.0219 12.3448 10.1453ZM13.0735 7.12389C13.0735 7.06122 13.0612 6.99916 13.0371 6.94127C13.0131 6.88339 12.9779 6.83083 12.9335 6.78662L10.5312 4.38498C10.4868 4.34065 10.4342 4.30548 10.3763 4.28149C10.3184 4.2575 10.2563 4.24515 10.1936 4.24515C10.1309 4.24515 10.0688 4.2575 10.0109 4.28149C9.95296 4.30548 9.90033 4.34065 9.856 4.38498C9.81167 4.42931 9.7765 4.48195 9.75251 4.53987C9.72851 4.59779 9.71617 4.65988 9.71617 4.72257C9.71617 4.78527 9.72851 4.84735 9.75251 4.90528C9.7765 4.9632 9.81167 5.01583 9.856 5.06016L11.4437 6.64725H6.60545C6.47887 6.64725 6.35748 6.69754 6.26797 6.78704C6.17847 6.87655 6.12818 6.99795 6.12818 7.12453C6.12818 7.25111 6.17847 7.3725 6.26797 7.46201C6.35748 7.55152 6.47887 7.6018 6.60545 7.6018H11.4444L9.85664 9.18953C9.76965 9.2795 9.72149 9.40004 9.72252 9.52518C9.72355 9.65032 9.77368 9.77005 9.86213 9.85858C9.95058 9.94711 10.0703 9.99736 10.1954 9.99851C10.3205 9.99966 10.4411 9.95161 10.5312 9.86471L12.9335 7.46244C13.023 7.37251 13.0733 7.2508 13.0735 7.12389Z" fill="#231815"/>
</g>
<defs>
<clipPath id="clip0_314_1217">
<rect width="14" height="14" fill="white"/>
</clipPath>
</defs>
</svg>
