<svg width="18" height="18" viewBox="0 0 18 18" fill="none" xmlns="http://www.w3.org/2000/svg">
<path fill-rule="evenodd" clip-rule="evenodd" d="M14.36 0.000615501C15.3179 0.0269483 16.0926 0.316217 16.6569 0.880498C17.2341 1.44483 17.5226 2.20636 17.5358 3.17737C17.5488 4.03039 17.3522 4.98845 16.9323 6.0514C16.591 6.93077 16.118 7.83632 15.5143 8.76819C16.118 9.70005 16.591 10.6056 16.9323 11.485C17.3523 12.5481 17.5489 13.5069 17.5358 14.36C17.5094 15.3179 17.2211 16.0926 16.6569 16.6569C16.0926 17.2343 15.331 17.5226 14.36 17.5358C13.5069 17.5489 12.5481 17.3523 11.485 16.9323C10.6056 16.591 9.70005 16.118 8.76819 15.5143C7.83632 16.118 6.93077 16.591 6.0514 16.9323C4.98845 17.3522 4.03039 17.5488 3.17737 17.5358C2.21949 17.5095 1.44484 17.221 0.880498 16.6569C0.303094 16.0926 0.0138293 15.331 0.000615499 14.36C-0.0125095 13.5069 0.184133 12.5481 0.604131 11.485C0.945381 10.6056 1.41835 9.70007 2.0221 8.76819C1.41835 7.83632 0.945381 6.93077 0.604131 6.0514C0.184223 4.98847 -0.0124467 4.03038 0.000615499 3.17737C0.0268654 2.21925 0.316126 1.458 0.880498 0.880498C1.44487 0.302998 2.20612 0.0137405 3.17737 0.000615501C4.03038 -0.0124468 4.98847 0.184223 6.0514 0.604131C6.93077 0.945381 7.83632 1.41835 8.76819 2.0221C9.70007 1.41835 10.6056 0.945381 11.485 0.604131C12.5481 0.184132 13.5069 -0.0125095 14.36 0.000615501ZM2.86194 9.93616C2.44194 10.6318 2.1137 11.3014 1.8512 11.9576C1.49685 12.8632 1.33948 13.6511 1.33948 14.3336C1.35266 14.9501 1.51008 15.4093 1.82483 15.7242C2.13983 16.0392 2.59956 16.2106 3.21644 16.2106C3.89892 16.2237 4.68681 16.0522 5.59241 15.6979L5.60511 15.7116C6.26136 15.4622 6.93097 15.1208 7.62659 14.7008C6.74722 14.0446 5.89347 13.2968 5.07972 12.483C4.25284 11.6562 3.51819 10.8155 2.86194 9.93616ZM14.7135 9.92347C14.0573 10.8027 13.3225 11.6426 12.4957 12.4694C11.6689 13.2962 10.8292 14.0319 9.94983 14.6881C10.6451 15.1079 11.3144 15.4355 11.9703 15.6979C12.8759 16.0522 13.6638 16.2106 14.3463 16.2106C14.9632 16.1975 15.4229 16.0392 15.7379 15.7242L15.7506 15.7116C16.0656 15.3966 16.236 14.9368 16.236 14.32C16.2491 13.6376 16.0785 12.8504 15.7242 11.945C15.4749 11.2887 15.1335 10.6191 14.7135 9.92347ZM8.78187 3.60999C7.82374 4.30562 6.89116 5.09347 5.99866 5.98597C5.0932 6.87833 4.30607 7.81023 3.62366 8.76819C4.31919 9.72617 5.10632 10.6581 5.99866 11.5504C6.89116 12.456 7.82374 13.2439 8.78187 13.9264C9.73988 13.2308 10.6717 12.4428 11.5641 11.5504C12.4696 10.658 13.2567 9.72617 13.9391 8.76819C13.2436 7.81023 12.4564 6.87833 11.5641 5.98597C10.6717 5.08042 9.7399 4.29245 8.78187 3.60999ZM8.78187 6.93128C9.79224 6.93153 10.6187 7.75778 10.6188 8.76819C10.6188 9.77866 9.79228 10.6058 8.78187 10.6061C7.77124 10.6061 6.94397 9.77882 6.94397 8.76819C6.94404 7.75762 7.77128 6.93128 8.78187 6.93128ZM3.20374 1.32679C2.58687 1.33991 2.12714 1.49714 1.81214 1.81214C1.49714 2.12714 1.32679 2.58687 1.32679 3.20374C1.31375 3.88612 1.48422 4.67334 1.83851 5.57874L1.82483 5.59241C2.08728 6.24848 2.41572 6.9175 2.83558 7.61292C3.4918 6.73359 4.22749 5.89386 5.05433 5.06702C5.8811 4.24027 6.72097 3.50542 7.60022 2.84925C6.9046 2.42925 6.23499 2.10101 5.57874 1.83851C4.67335 1.48423 3.88612 1.32686 3.20374 1.32679ZM14.3463 1.31312C13.6638 1.3 12.8759 1.47047 11.9703 1.82483L11.9576 1.81214C11.3014 2.07464 10.6318 2.40289 9.93616 2.82288C10.8155 3.47913 11.6693 4.2269 12.483 5.04065C13.3098 5.8674 14.0447 6.70733 14.7008 7.58655C15.1207 6.89112 15.4491 6.22212 15.7116 5.56605C16.0659 4.66042 16.2233 3.87257 16.2233 3.19007C16.2101 2.57323 16.0529 2.11346 15.7379 1.79847C15.4229 1.48351 14.9632 1.31312 14.3463 1.31312Z" fill="#3E2676"/>
</svg>
