<svg width="16" height="17" viewBox="0 0 16 17" fill="none" xmlns="http://www.w3.org/2000/svg">
<path d="M7.83457 7.46225e-07C9.02279 7.71265e-07 10.1623 0.472021 11.0026 1.31222C11.8428 2.15243 12.3148 3.29198 12.3148 4.48021C12.3148 5.66843 11.8428 6.80799 11.0026 7.64819C10.1623 8.4884 9.02279 8.96042 7.83457 8.96042L8.0085 8.95831C7.97484 8.96513 7.9406 8.96866 7.90625 8.96885C7.00642 8.96885 6.1154 9.14608 5.28407 9.49043C4.45274 9.83478 3.69737 10.3395 3.0611 10.9758C1.77608 12.2608 1.05417 14.0036 1.05417 15.8209C1.05417 15.9607 0.998635 16.0948 0.899788 16.1936C0.80094 16.2925 0.666875 16.348 0.527083 16.348C0.387292 16.348 0.253226 16.2925 0.154379 16.1936C0.0555319 16.0948 4.87796e-08 15.9607 4.87796e-08 15.8209C-0.000185703 14.1479 0.530136 12.5179 1.51472 11.1653C2.49931 9.81268 3.88744 8.8071 5.47956 8.29313C4.64954 7.78104 4.00929 7.0121 3.65602 6.10306C3.30275 5.19402 3.25576 4.19453 3.52218 3.25635C3.78859 2.31817 4.35387 1.49255 5.13217 0.904837C5.91047 0.317129 6.85929 -0.00056196 7.83457 7.46225e-07ZM14.7056 13.8992C14.8454 13.8992 14.9795 13.9547 15.0783 14.0536C15.1772 14.1524 15.2327 14.2865 15.2327 14.4263C15.2327 14.5661 15.1772 14.7001 15.0783 14.799C14.9795 14.8978 14.8454 14.9534 14.7056 14.9534H8.38062C8.24083 14.9534 8.10677 14.8978 8.00792 14.799C7.90907 14.7001 7.85354 14.5661 7.85354 14.4263C7.85354 14.2865 7.90907 14.1524 8.00792 14.0536C8.10677 13.9547 8.24083 13.8992 8.38062 13.8992H14.7056ZM14.7056 11.2638C14.8454 11.2638 14.9795 11.3193 15.0783 11.4181C15.1772 11.517 15.2327 11.6511 15.2327 11.7909C15.2327 11.9306 15.1772 12.0647 15.0783 12.1636C14.9795 12.2624 14.8454 12.3179 14.7056 12.3179H11.5431C11.4033 12.3179 11.2693 12.2624 11.1704 12.1636C11.0716 12.0647 11.016 11.9306 11.016 11.7909C11.016 11.6511 11.0716 11.517 11.1704 11.4181C11.2693 11.3193 11.4033 11.2638 11.5431 11.2638H14.7056ZM7.83457 1.05417C6.92592 1.05417 6.0545 1.41512 5.41199 2.05763C4.76948 2.70014 4.40852 3.57157 4.40852 4.48021C4.40852 5.38885 4.76948 6.26028 5.41199 6.90279C6.0545 7.54529 6.92592 7.90625 7.83457 7.90625C8.74321 7.90625 9.61464 7.54529 10.2571 6.90279C10.8997 6.26028 11.2606 5.38885 11.2606 4.48021C11.2606 3.57157 10.8997 2.70014 10.2571 2.05763C9.61464 1.41512 8.74321 1.05417 7.83457 1.05417Z" fill="black"/>
</svg>
