<svg width="43" height="47" viewBox="0 0 43 47" fill="none" xmlns="http://www.w3.org/2000/svg">
<path d="M40.5 42C41.8807 42 43 43.1193 43 44.5C43 45.8807 41.8807 47 40.5 47H2.5C1.11929 47 0 45.8807 0 44.5C0 43.1193 1.11929 42 2.5 42H40.5ZM3.5 34C4.88071 34 6 35.1193 6 36.5C6 37.8807 4.88071 39 3.5 39C2.11929 39 1 37.8807 1 36.5C1 35.1193 2.11929 34 3.5 34ZM34.5 34C35.8807 34 37 35.1193 37 36.5C37 37.8807 35.8807 39 34.5 39H11.5C10.1193 39 9 37.8807 9 36.5C9 35.1193 10.1193 34 11.5 34H34.5ZM40.5 17C41.8807 17 43 18.1193 43 19.5C43 20.8807 41.8807 22 40.5 22H2.5C1.11929 22 0 20.8807 0 19.5C0 18.1193 1.11929 17 2.5 17H40.5ZM40.5 8C41.8807 8 43 9.11929 43 10.5C43 11.8807 41.8807 13 40.5 13H2.5C1.11929 13 0 11.8807 0 10.5C0 9.11929 1.11929 8 2.5 8H40.5ZM25.5 0C26.8807 2.57702e-07 28 1.11929 28 2.5C28 3.88071 26.8807 5 25.5 5H2.5C1.11929 5 0 3.88071 0 2.5C0 1.11929 1.11929 3.22128e-08 2.5 0H25.5Z" fill="#E3CEFB"/>
</svg>
