<svg width="11" height="11" viewBox="0 0 11 11" fill="none" xmlns="http://www.w3.org/2000/svg">
<path d="M10.0516 3.06944L7.03499 0.111858C6.96068 0.0391111 6.86368 0.00273778 6.75691 0C6.65287 0.00117333 6.55353 0.0434133 6.48117 0.117724L0.86873 5.86706C0.814756 5.9222 0.778383 5.9926 0.763912 6.06809L0.00672073 10.1094C-0.0175282 10.2389 0.0247118 10.3715 0.119361 10.4626C0.19289 10.5342 0.290667 10.5725 0.391183 10.5725C0.419343 10.5725 0.448285 10.5694 0.476445 10.5631L4.05081 9.76604C4.12551 9.74962 4.19396 9.7109 4.24715 9.65575L10.0598 3.62012C10.2085 3.46524 10.2049 3.21963 10.0516 3.06944ZM4.11104 8.66937L2.61348 7.18471C2.45977 7.03218 2.21181 7.03335 2.06045 7.18706C1.9083 7.34076 1.90948 7.58795 2.06279 7.74009L3.43637 9.10155L0.884765 9.671L1.51133 6.32857L6.76747 0.944924L9.22717 3.35652L4.11104 8.66937Z" fill="black" fill-opacity="0.5"/>
</svg>
