<svg width="22" height="22" viewBox="0 0 22 22" fill="none" xmlns="http://www.w3.org/2000/svg">
<path d="M17.1875 16.5V7.5625C17.1875 6.83315 16.8978 6.13368 16.382 5.61796C15.8663 5.10223 15.1668 4.8125 14.4375 4.8125H5.5V4.125C5.5 3.7455 5.63429 3.42146 5.90288 3.15287C6.17146 2.88429 6.4955 2.75 6.875 2.75H17.875C18.2545 2.75 18.5785 2.88429 18.8471 3.15287C19.1157 3.42146 19.25 3.7455 19.25 4.125V15.125C19.25 15.5045 19.1157 15.8285 18.8471 16.0971C18.5785 16.3657 18.2545 16.5 17.875 16.5H17.1875ZM17.1875 17.875H17.875C18.634 17.875 19.2821 17.6064 19.8193 17.0692C20.3564 16.5321 20.625 15.884 20.625 15.125V4.125C20.625 3.366 20.3564 2.71792 19.8193 2.18075C19.2821 1.64358 18.634 1.375 17.875 1.375H6.875C6.116 1.375 5.46792 1.64358 4.93075 2.18075C4.39358 2.71792 4.125 3.366 4.125 4.125V4.8125C3.39565 4.8125 2.69618 5.10223 2.18046 5.61796C1.66473 6.13368 1.375 6.83315 1.375 7.5625V17.875C1.375 18.6043 1.66473 19.3038 2.18046 19.8195C2.69618 20.3353 3.39565 20.625 4.125 20.625H14.4375C15.1668 20.625 15.8663 20.3353 16.382 19.8195C16.8978 19.3038 17.1875 18.6043 17.1875 17.875ZM2.75 17.875V7.5625C2.75 7.183 2.88429 6.85896 3.15287 6.59038C3.42146 6.32179 3.7455 6.1875 4.125 6.1875H14.4375C14.817 6.1875 15.141 6.32179 15.4096 6.59038C15.6782 6.85896 15.8125 7.183 15.8125 7.5625V17.875C15.8125 18.2545 15.6782 18.5785 15.4096 18.8471C15.141 19.1157 14.817 19.25 14.4375 19.25H4.125C3.7455 19.25 3.42146 19.1157 3.15287 18.8471C2.88429 18.5785 2.75 18.2545 2.75 17.875Z" fill="#999999"/>
</svg>
