<svg width="12" height="12" viewBox="0 0 12 12" fill="none" xmlns="http://www.w3.org/2000/svg">
<path d="M7.36719 0C7.60461 0.000174051 7.79668 0.192269 7.79688 0.429688C7.79688 0.66727 7.60473 0.859201 7.36719 0.859375H2.43262C1.56535 0.859637 0.859394 1.56627 0.859375 2.43359V9.5332C0.859375 10.4005 1.56533 11.1072 2.43262 11.1074H7.36719C7.60473 11.1076 7.79688 11.2995 7.79688 11.5371C7.79684 11.7747 7.60471 11.9666 7.36719 11.9668H2.43262C1.78553 11.9667 1.17436 11.7124 0.713867 11.252C0.253494 10.7914 0 10.1803 0 9.5332V2.43359C9.284e-06 1.78644 0.253407 1.17542 0.713867 0.714844C1.17436 0.254349 1.78553 0.000126366 2.43262 0H7.36719ZM8.68652 2.97754C8.85435 2.80971 9.12705 2.80978 9.29492 2.97754L11.876 5.5625C11.9862 5.67274 12.0219 5.82749 11.9873 5.96875C12.0207 6.10919 11.9844 6.26257 11.875 6.37207L9.29004 8.95312C9.20678 9.03773 9.09645 9.08008 8.98633 9.08008C8.87626 9.08004 8.76584 9.03769 8.68262 8.95312C8.5151 8.78524 8.51487 8.51247 8.68262 8.34473L10.6338 6.39551H4.08301C3.84566 6.39525 3.65352 6.20319 3.65332 5.96582C3.65332 5.72829 3.84554 5.53639 4.08301 5.53613H10.6357L8.68652 3.58594C8.51886 3.41816 8.51898 3.14539 8.68652 2.97754Z" fill="#555555"/>
</svg>
