<svg width="17" height="17" viewBox="0 0 17 17" fill="none" xmlns="http://www.w3.org/2000/svg">
<path d="M9.46456 0.353479C9.21371 0.125999 8.88723 0 8.54864 0C8.21006 0 7.88358 0.125999 7.63273 0.353479L0.225734 7.38738C0.0911568 7.50874 0.0102872 7.6786 0.000915358 7.8596C-0.00845648 8.0406 0.0544371 8.21791 0.17576 8.35253C0.297083 8.48714 0.466898 8.56804 0.647847 8.57741C0.828795 8.58678 1.00606 8.52387 1.14063 8.40252L1.25838 8.2904V15.6319C1.25817 15.8116 1.29338 15.9895 1.36198 16.1555C1.43059 16.3216 1.53125 16.4724 1.65821 16.5995C1.78517 16.7266 1.93593 16.8273 2.10187 16.8961C2.26781 16.9648 2.44567 17.0001 2.62527 17H6.60211V12.8856C6.60195 12.7591 6.62673 12.6338 6.67505 12.5169C6.72337 12.4 6.79426 12.2937 6.88368 12.2042C6.97309 12.1148 7.07928 12.0438 7.19615 11.9954C7.31301 11.947 7.43827 11.9222 7.56475 11.9223H9.43583C9.56233 11.9222 9.6876 11.947 9.8045 11.9954C9.92139 12.0438 10.0276 12.1147 10.117 12.2042C10.2065 12.2937 10.2774 12.3999 10.3258 12.5169C10.3741 12.6338 10.399 12.7591 10.3989 12.8856V17H14.4696C14.6492 17 14.827 16.9646 14.9929 16.8959C15.1588 16.8271 15.3096 16.7263 15.4366 16.5993C15.5635 16.4722 15.6642 16.3214 15.7329 16.1554C15.8016 15.9894 15.8369 15.8116 15.8369 15.6319V8.37985C16.1404 8.65468 16.5709 8.63363 16.8238 8.35233C16.884 8.28571 16.9304 8.2079 16.9605 8.12332C16.9906 8.03874 17.0037 7.94907 16.9991 7.85942C16.9945 7.76977 16.9723 7.6819 16.9338 7.60083C16.8952 7.51977 16.8411 7.4471 16.7744 7.38698L9.46456 0.353884V0.353479Z" fill="#3D1E85"/>
</svg>
