<svg width="20" height="20" viewBox="0 0 20 20" fill="none" xmlns="http://www.w3.org/2000/svg">
<path d="M15.8125 15.125V6.1875C15.8125 5.45815 15.5228 4.75868 15.007 4.24296C14.4913 3.72723 13.7918 3.4375 13.0625 3.4375H4.125V2.75C4.125 2.3705 4.25929 2.04646 4.52788 1.77787C4.79646 1.50929 5.1205 1.375 5.5 1.375H16.5C16.8795 1.375 17.2035 1.50929 17.4721 1.77787C17.7407 2.04646 17.875 2.3705 17.875 2.75V13.75C17.875 14.1295 17.7407 14.4535 17.4721 14.7221C17.2035 14.9907 16.8795 15.125 16.5 15.125H15.8125ZM15.8125 16.5H16.5C17.259 16.5 17.9071 16.2314 18.4443 15.6942C18.9814 15.1571 19.25 14.509 19.25 13.75V2.75C19.25 1.991 18.9814 1.34292 18.4443 0.80575C17.9071 0.268583 17.259 0 16.5 0H5.5C4.741 0 4.09292 0.268583 3.55575 0.80575C3.01858 1.34292 2.75 1.991 2.75 2.75V3.4375C2.02065 3.4375 1.32118 3.72723 0.805456 4.24296C0.289731 4.75868 0 5.45815 0 6.1875V16.5C0 17.2293 0.289731 17.9288 0.805456 18.4445C1.32118 18.9603 2.02065 19.25 2.75 19.25H13.0625C13.7918 19.25 14.4913 18.9603 15.007 18.4445C15.5228 17.9288 15.8125 17.2293 15.8125 16.5ZM1.375 16.5V6.1875C1.375 5.808 1.50929 5.48396 1.77787 5.21538C2.04646 4.94679 2.3705 4.8125 2.75 4.8125H13.0625C13.442 4.8125 13.766 4.94679 14.0346 5.21538C14.3032 5.48396 14.4375 5.808 14.4375 6.1875V16.5C14.4375 16.8795 14.3032 17.2035 14.0346 17.4721C13.766 17.7407 13.442 17.875 13.0625 17.875H2.75C2.3705 17.875 2.04646 17.7407 1.77787 17.4721C1.50929 17.2035 1.375 16.8795 1.375 16.5Z" fill="#999999"/>
</svg>
