<svg width="12" height="12" viewBox="0 0 12 12" fill="none" xmlns="http://www.w3.org/2000/svg">
<path d="M5.9248 0.00683594C8.90217 0.157703 11.2695 2.62088 11.2695 5.63574L11.2627 5.9248C11.1991 7.18004 10.7231 8.32569 9.96973 9.23242L11.8477 11.1094C12.0512 11.3131 12.0513 11.644 11.8477 11.8477C11.644 12.0513 11.3131 12.0512 11.1094 11.8477L9.23242 9.96973C8.25651 10.7805 7.00364 11.2693 5.63574 11.2695L5.34473 11.2627C2.46351 11.1165 0.152833 8.80606 0.00683594 5.9248L0 5.63574C0 2.52366 2.52366 0 5.63574 0L5.9248 0.00683594ZM5.63574 1.04395C3.09998 1.04395 1.04395 3.09998 1.04395 5.63574C1.04439 8.17113 3.10025 10.2266 5.63574 10.2266C8.17085 10.2261 10.2261 8.17085 10.2266 5.63574C10.2266 3.10025 8.17113 1.04439 5.63574 1.04395Z" fill="#242226"/>
</svg>
