<svg width="8" height="11" viewBox="0 0 8 11" fill="none" xmlns="http://www.w3.org/2000/svg">
<path opacity="0.5" d="M5.54145 8.95349H2.46826C2.26338 8.95349 2.0585 8.8 2.0585 8.54419V7.77674C2.0585 7.67442 2.00728 7.57209 1.95606 7.46977C1.90484 7.36744 1.85362 7.31628 1.75118 7.26512C1.18776 6.90698 0.726784 6.39535 0.419465 5.7814C0.112146 5.16744 -0.0415137 4.50233 0.00970618 3.83721C0.060926 2.81395 0.470685 1.89302 1.18776 1.17674C1.95606 0.409302 2.92924 0 3.95363 0C4.46583 0 5.02925 0.102326 5.49023 0.306977C6.00243 0.511628 6.41219 0.767442 6.82194 1.17674C7.18048 1.53488 7.4878 1.99535 7.69268 2.45581C7.89756 2.96744 8 3.47907 8 3.9907C8 4.65581 7.84634 5.26977 7.53902 5.83256C7.2317 6.39535 6.77072 6.90698 6.25853 7.26512C6.15609 7.31628 6.10487 7.4186 6.05365 7.52093C6.00243 7.62326 6.00243 7.72558 6.00243 7.82791V8.54419C5.95121 8.74884 5.74633 8.95349 5.54145 8.95349ZM2.8268 8.18605H5.13169V7.77674C5.13169 7.52093 5.18291 7.31628 5.28535 7.11163C5.38779 6.90698 5.54145 6.75349 5.74633 6.6C6.15609 6.29302 6.51463 5.93488 6.77072 5.47442C7.02682 5.01395 7.12926 4.50233 7.12926 3.9907C7.12926 3.58139 7.02682 3.17209 6.87316 2.76279C6.7195 2.35349 6.46341 1.99535 6.15609 1.73953C5.84877 1.48372 5.49023 1.22791 5.08047 1.07442C4.67071 0.92093 4.26095 0.818605 3.85119 0.869767C3.03168 0.869767 2.26338 1.22791 1.69996 1.7907C1.13654 2.35349 0.829224 3.0186 0.778004 3.83721C0.778004 4.34884 0.880443 4.91163 1.13654 5.42326C1.39264 5.88372 1.75118 6.34419 2.21216 6.6C2.41704 6.70233 2.5707 6.90698 2.67314 7.11163C2.77558 7.31628 2.8268 7.57209 2.8268 7.77674V8.18605ZM4.00485 11C3.39022 11 2.72436 10.7953 2.21216 10.386C2.0585 10.2837 2.00728 10.0279 2.16094 9.87442C2.26338 9.72093 2.51948 9.66977 2.72436 9.82326C3.49266 10.386 4.56827 10.386 5.33657 9.82326C5.49023 9.66977 5.74633 9.72093 5.84877 9.87442C5.95121 10.0279 5.95121 10.2837 5.79755 10.386C5.28535 10.7953 4.61949 11 4.00485 11Z" fill="black"/>
</svg>
