<svg width="18" height="18" viewBox="0 0 18 18" fill="none" xmlns="http://www.w3.org/2000/svg">
<path d="M15.4596 1.11998C15.4786 1.21256 15.4881 1.30654 15.4881 1.40088V4.05187C16.1058 4.2705 16.6405 4.6752 17.0187 5.21027C17.3969 5.74534 17.6 6.38448 17.6 7.03972C17.6 7.69496 17.3969 8.3341 17.0187 8.86917C16.6405 9.40424 16.1058 9.80894 15.4881 10.0276V12.6789C15.4881 13.4526 14.858 14.0799 14.0801 14.0799C13.9853 14.08 13.8907 14.0706 13.7978 14.0517L7.74405 12.819V15.3119C7.74405 15.6124 7.68487 15.9099 7.56988 16.1875C7.4549 16.4651 7.28637 16.7174 7.0739 16.9298C6.86144 17.1423 6.60921 17.3108 6.33162 17.4258C6.05402 17.5408 5.7565 17.6 5.45603 17.6C5.15557 17.6 4.85804 17.5408 4.58045 17.4258C4.30285 17.3108 4.05063 17.1423 3.83816 16.9298C3.6257 16.7174 3.45717 16.4651 3.34218 16.1875C3.2272 15.9099 3.16802 15.6124 3.16802 15.3119V11.8879L1.1257 11.4722C0.808529 11.4083 0.523196 11.2367 0.318042 10.9866C0.112888 10.7364 0.000529011 10.4229 0 10.0994V3.98041C0 3.31511 0.470627 2.74133 1.1257 2.60757L13.7978 0.0287506C14.5599 -0.126485 15.3036 0.362456 15.4592 1.12033L15.4596 1.11998ZM4.22403 12.1027V15.3119C4.22403 15.6387 4.35383 15.9521 4.58487 16.1831C4.81592 16.4142 5.12928 16.544 5.45603 16.544C5.78278 16.544 6.09615 16.4142 6.32719 16.1831C6.55824 15.9521 6.68804 15.6387 6.68804 15.3119V12.6043L4.22403 12.1027ZM14.0097 1.05767L1.33761 3.63685C1.25827 3.65277 1.18689 3.69564 1.13557 3.7582C1.08424 3.82075 1.05613 3.89914 1.05601 3.98006V10.0997C1.05601 10.2659 1.17358 10.4095 1.33761 10.4426L14.0097 13.0221C14.0607 13.0327 14.1134 13.0317 14.164 13.0194C14.2147 13.007 14.2619 12.9836 14.3023 12.9507C14.3428 12.9179 14.3754 12.8765 14.3978 12.8294C14.4203 12.7824 14.432 12.731 14.4321 12.6789V1.40053C14.4318 1.34848 14.42 1.29712 14.3976 1.25017C14.3751 1.20322 14.3425 1.16185 14.3021 1.12902C14.2617 1.09619 14.2145 1.07274 14.1639 1.06034C14.1134 1.04794 14.0607 1.04691 14.0097 1.05732V1.05767ZM15.4881 5.21033V8.86911C15.8093 8.68377 16.0759 8.41711 16.2613 8.09597C16.4467 7.77483 16.5442 7.41053 16.5441 7.03972C16.5441 6.25826 16.1196 5.57536 15.4884 5.21033H15.4881Z" fill="black"/>
</svg>
