<svg width="14" height="13" viewBox="0 0 14 13" fill="none" xmlns="http://www.w3.org/2000/svg">
<path d="M6.99707 -0.0498047C7.31305 -0.0496986 7.59514 0.115551 7.74316 0.391602L9.54688 3.69727L13.3457 4.33594H13.3467C13.6553 4.39098 13.909 4.6043 14.0078 4.89453C14.1069 5.18548 14.0291 5.51066 13.8037 5.73145L11.124 8.4043L11.6709 12.0977C11.7132 12.401 11.5859 12.7041 11.332 12.8838L11.333 12.8848C11.185 12.995 11.0089 13.0498 10.833 13.0498C10.7065 13.0498 10.58 13.0226 10.4609 12.9678L10.46 12.9668L6.99609 11.3096L3.52637 12.96L3.52734 12.9609C3.24508 13.0991 2.91384 13.0635 2.66113 12.8848C2.40714 12.7051 2.28 12.4011 2.32227 12.0977L2.86816 8.4043L0.189453 5.73145V5.73047C0.0820822 5.62368 0.00654821 5.48994 -0.0283203 5.34375C-0.0632189 5.19732 -0.056081 5.04408 -0.0078125 4.90137L0.0361328 4.79395C0.155019 4.55369 0.383398 4.38517 0.654297 4.34277L4.44629 3.69727L6.25098 0.391602V0.390625C6.39883 0.122215 6.68055 -0.0498047 6.99707 -0.0498047ZM5.0459 4.47363L5.03516 4.49512L5.01074 4.49902L0.898438 5.18359L3.80566 8.08008L3.82324 8.09766L3.81934 8.12305L3.22363 12.1289L6.97559 10.3467L6.99707 10.3369L7.01855 10.3467L10.7686 12.1357L10.1738 8.12891L10.1699 8.10449L10.1885 8.08594L13.0947 5.18945L8.98242 4.49902L8.95898 4.49512L8.94727 4.47363L6.99609 0.888672L5.0459 4.47363Z" fill="black" stroke="black" stroke-width="0.1"/>
</svg>
